<?xml version="1.0" standalone="no"?>
<!DOCTYPE svg PUBLIC "-//W3C//DTD SVG 20010904//EN"
 "http://www.w3.org/TR/2001/REC-SVG-20010904/DTD/svg10.dtd">
<svg version="1.0" xmlns="http://www.w3.org/2000/svg"
 width="768.000000pt" height="1280.000000pt" viewBox="0 0 768.000000 1280.000000"
 preserveAspectRatio="xMidYMid meet">
<metadata>
Created by potrace 1.15, written by Peter Selinger 2001-2017
</metadata>
<g transform="translate(0.000000,1280.000000) scale(0.100000,-0.100000)"
fill="#000000" stroke="none">
<path d="M4468 11527 c-4 -42 -29 -46 -70 -12 -38 32 -44 28 -98 -72 -34 -62
-41 -69 -79 -78 -68 -16 -88 -58 -51 -105 25 -32 27 -80 2 -80 -24 0 -89 -45
-103 -72 -7 -13 -15 -37 -20 -56 -7 -31 -5 -34 32 -52 51 -26 113 -26 151 1
17 12 33 18 38 13 5 -5 10 -180 12 -390 l3 -380 27 -42 c52 -77 46 -76 464
-82 l371 -5 42 -28 c56 -37 52 -59 -12 -71 -66 -12 -80 -40 -48 -96 29 -52 25
-84 -11 -88 -32 -4 -108 -82 -108 -111 0 -11 -3 -26 -6 -34 -14 -36 140 -62
184 -31 19 13 28 14 53 4 16 -7 29 -17 29 -22 0 -19 -32 -84 -53 -106 -53 -57
-52 -57 -457 -62 l-376 -5 -31 -25 c-70 -56 -88 -166 -40 -239 15 -22 45 -50
67 -61 37 -19 58 -20 407 -20 321 0 378 2 444 18 137 33 266 139 337 277 31
59 62 178 62 235 0 25 5 29 50 40 43 10 51 17 70 54 11 23 20 52 20 63 0 11 9
32 21 47 20 25 20 28 5 45 -9 10 -16 21 -16 25 0 5 -15 23 -34 42 -27 27 -35
44 -41 89 -3 30 -4 59 0 65 13 20 -6 30 -28 15 -44 -31 -63 -16 -150 114 -51
77 -154 160 -236 191 -90 33 -161 40 -413 40 l-238 0 0 260 0 260 423 0 c390
0 425 2 463 19 49 22 79 61 95 123 11 40 10 52 -6 94 -23 61 -60 99 -111 113
-25 7 -169 11 -396 11 l-357 0 -6 44 c-4 24 -4 53 0 65 8 25 3 26 -36 6 -31
-17 -69 -7 -69 18 0 11 -24 20 -147 58 -19 6 -22 3 -25 -24z"/>
<path d="M2518 11477 c-2 -26 -8 -33 -30 -35 -18 -2 -31 4 -41 18 -25 36 -49
20 -98 -65 -44 -77 -47 -80 -88 -86 -63 -8 -80 -49 -41 -99 11 -14 20 -37 20
-51 0 -21 -6 -28 -27 -32 -46 -9 -101 -66 -112 -114 -8 -38 -7 -44 15 -58 l24
-15 -98 -123 c-54 -67 -210 -264 -347 -437 -137 -173 -272 -344 -301 -380 -59
-73 -74 -105 -74 -155 0 -113 81 -174 233 -175 54 0 87 -4 87 -10 0 -17 81
-50 123 -50 23 0 49 8 65 20 27 20 29 20 62 3 19 -9 44 -27 55 -39 12 -12 33
-26 48 -29 20 -5 27 -13 27 -30 0 -13 5 -27 10 -30 6 -3 10 -16 10 -27 0 -20
90 -118 108 -118 10 0 36 126 34 167 -1 23 5 37 27 56 16 13 31 32 32 42 3 13
20 22 59 31 98 23 90 38 90 -168 0 -101 5 -200 10 -220 22 -79 91 -131 175
-131 76 0 140 41 164 106 8 19 11 301 11 882 l0 853 33 6 c28 5 37 14 55 56
12 28 22 58 22 67 0 9 10 27 22 40 l21 23 -21 23 c-12 13 -22 27 -22 31 0 4
-12 19 -26 34 -35 37 -44 64 -44 127 l0 55 -36 -18 c-36 -17 -36 -17 -58 10
-14 17 -41 32 -81 43 -33 9 -68 20 -77 25 -14 8 -17 4 -20 -23z m-128 -1123
l0 -325 -22 3 c-20 3 -23 9 -22 46 0 23 -1 42 -3 42 -2 0 -17 -7 -34 -15 -31
-17 -69 -7 -69 18 0 7 -33 23 -73 36 -39 13 -78 25 -84 28 -9 3 -13 -6 -13
-25 0 -43 -34 -53 -65 -21 l-23 24 201 257 c111 141 203 257 205 257 1 1 2
-146 2 -325z"/>
<path d="M5638 8073 c-5 -40 -41 -48 -72 -16 -14 14 -32 23 -39 20 -8 -3 -35
-42 -61 -86 l-46 -80 -429 -3 -429 -3 -43 -30 c-70 -50 -98 -134 -68 -212 11
-31 53 -78 84 -96 14 -8 134 -14 370 -19 193 -4 375 -10 407 -13 36 -4 64 -3
78 5 12 6 23 10 25 8 3 -3 -59 -157 -115 -288 -11 -25 -40 -94 -65 -155 -25
-60 -55 -130 -65 -155 -11 -25 -41 -99 -69 -165 -27 -66 -125 -300 -216 -520
-148 -354 -167 -404 -162 -442 9 -87 76 -145 172 -151 65 -4 104 8 138 45 9
11 62 127 117 259 55 131 104 248 109 259 5 11 21 47 35 80 40 97 169 404 283
675 39 91 80 191 93 222 14 34 30 58 42 61 13 4 18 15 18 41 0 36 17 85 64
187 25 55 28 57 85 74 51 16 61 23 75 55 9 20 16 46 16 58 0 11 11 34 25 50
l25 30 -42 52 c-62 76 -68 89 -68 153 0 61 -6 67 -45 41 -23 -15 -26 -14 -48
8 -25 25 -80 52 -139 67 -35 9 -37 8 -40 -16z"/>
<path d="M1978 7941 c-4 -35 -42 -40 -74 -10 -32 30 -49 20 -86 -47 -14 -27
-30 -53 -35 -59 -5 -5 -12 -17 -15 -27 -4 -9 -24 -19 -50 -23 -24 -4 -46 -13
-50 -19 -14 -21 -8 -63 12 -89 11 -14 20 -31 20 -39 0 -19 -21 -38 -42 -38
-41 0 -108 -86 -108 -139 0 -25 56 -51 109 -51 l41 0 0 -643 c0 -709 -1 -690
65 -833 44 -97 126 -183 212 -226 56 -27 64 -34 59 -54 -6 -21 -3 -22 42 -21
41 2 47 -1 50 -19 2 -12 13 -26 25 -32 12 -6 46 -25 75 -42 29 -16 55 -30 57
-30 2 0 5 10 7 23 5 37 45 35 78 -5 l28 -33 68 73 c66 71 68 72 116 72 41 0
51 3 55 20 3 11 10 20 17 20 6 0 40 14 74 30 154 73 256 194 297 355 18 70 21
428 5 516 -16 89 -75 196 -146 266 -70 69 -123 103 -210 134 -51 19 -85 22
-259 25 -110 2 -213 6 -228 9 -42 7 -85 41 -107 84 -17 33 -17 45 -8 112 6 41
10 91 10 112 -1 33 3 41 28 55 16 9 30 24 30 33 0 19 20 39 40 39 45 0 89 22
108 55 l21 34 303 3 c345 3 347 4 399 86 46 72 38 155 -19 215 -54 57 -53 57
-412 57 -208 0 -330 4 -330 10 0 6 -9 6 -26 0 -36 -14 -72 -12 -81 4 -10 17
-67 43 -120 54 -41 9 -42 9 -45 -17z m359 -1300 l221 -6 44 -30 c72 -50 78
-73 78 -278 0 -194 -6 -222 -56 -268 -44 -40 -71 -45 -85 -16 -6 13 -23 31
-38 40 -23 14 -27 22 -29 74 -2 48 -8 67 -38 111 -20 28 -40 52 -44 52 -4 0
-17 -27 -29 -60 -12 -32 -26 -62 -31 -65 -6 -4 -10 -20 -10 -36 0 -24 -6 -33
-32 -44 -18 -7 -38 -22 -45 -33 -9 -16 -23 -20 -70 -21 -109 -1 -123 39 -123
364 0 127 3 234 6 238 3 3 18 1 33 -6 15 -6 118 -13 248 -16z"/>
<path d="M5306 4556 c8 -20 -13 -46 -36 -46 -9 0 -25 9 -35 20 -37 41 -56 26
-119 -96 -24 -47 -31 -52 -68 -58 -24 -4 -47 -15 -55 -26 -8 -11 -20 -20 -26
-20 -7 0 -45 -16 -85 -35 -140 -67 -255 -221 -283 -379 -7 -42 -10 -129 -7
-229 4 -134 9 -173 27 -226 55 -159 205 -300 363 -342 24 -6 140 -14 258 -18
244 -7 266 -13 307 -87 19 -32 23 -55 23 -128 0 -77 -3 -95 -27 -140 -48 -91
-60 -104 -104 -111 -57 -10 -71 -41 -40 -96 41 -71 52 -69 -329 -69 -380 0
-384 -1 -438 -66 -60 -72 -52 -174 18 -238 22 -19 50 -38 63 -41 13 -4 205 -5
428 -3 399 3 405 4 453 27 26 12 52 19 56 14 4 -4 13 -24 19 -44 7 -23 30 -52
61 -78 27 -22 51 -41 53 -41 2 0 7 27 10 60 4 34 11 70 17 80 7 14 7 26 0 39
-8 16 -4 24 23 46 17 15 34 37 37 48 4 16 20 24 68 35 42 9 65 19 68 30 3 9
12 29 20 44 8 14 14 35 14 46 0 10 10 31 21 46 l21 27 -21 23 c-11 12 -21 27
-21 32 0 5 -9 15 -21 22 -30 19 -49 73 -49 139 0 44 -3 54 -12 45 -7 -7 -16
-12 -20 -12 -4 0 -8 251 -8 558 0 626 -2 640 -69 777 -49 98 -117 174 -196
218 -71 39 -85 62 -85 145 0 66 -3 70 -34 47 -27 -20 -52 -19 -68 4 -16 23
-62 46 -108 56 -19 3 -43 9 -52 11 -13 4 -16 1 -12 -10z m-130 -574 c11 -11
33 -23 49 -29 17 -5 30 -16 30 -24 2 -45 32 -103 78 -145 27 -25 51 -44 53
-42 7 7 27 135 26 168 -1 38 21 70 49 70 10 0 31 -12 49 -26 57 -49 60 -62 60
-302 l0 -219 -62 13 c-38 8 -134 14 -241 14 -155 0 -183 2 -215 19 -86 44
-102 85 -102 255 0 135 17 188 72 227 54 39 124 48 154 21z"/>
<path d="M2441 4489 c7 -56 -29 -71 -74 -33 -37 31 -43 26 -96 -73 -35 -64
-40 -69 -82 -77 -24 -5 -48 -15 -52 -23 -4 -7 -15 -13 -23 -13 -9 0 -51 -18
-93 -40 -100 -52 -179 -131 -230 -229 -53 -103 -64 -177 -59 -381 4 -146 7
-173 30 -232 14 -36 41 -89 61 -117 21 -28 37 -53 37 -55 0 -3 -17 -31 -38
-63 -76 -114 -85 -153 -90 -379 -4 -180 -2 -211 17 -285 41 -163 131 -300 244
-367 49 -30 88 -43 189 -66 21 -5 27 -12 25 -29 -1 -15 3 -21 13 -18 56 15 70
13 79 -10 5 -16 35 -37 82 -62 71 -36 74 -37 77 -17 2 12 15 26 30 31 23 9 29
7 52 -21 l26 -31 24 19 c14 11 43 45 65 76 40 55 54 63 110 57 11 -1 24 5 30
12 5 8 30 23 55 34 112 50 225 169 276 290 l29 68 0 260 c0 297 -4 317 -81
432 -24 36 -44 67 -44 69 0 2 18 29 40 60 72 103 83 146 88 340 5 197 -5 249
-67 379 -66 140 -178 239 -311 275 l-55 15 -3 73 c-2 39 -5 72 -8 72 -3 0 -18
-7 -35 -15 -31 -17 -69 -7 -69 18 0 7 -33 23 -73 36 -39 13 -78 25 -85 28 -7
3 -13 -1 -11 -8z m-128 -580 c12 -12 33 -25 47 -30 19 -7 30 -23 44 -70 16
-49 29 -68 68 -101 27 -22 50 -39 51 -37 8 11 30 139 29 165 -1 24 6 38 33 63
19 17 45 31 58 31 43 0 111 -43 135 -85 21 -37 22 -50 20 -192 -3 -165 -8
-180 -72 -227 -26 -20 -41 -21 -279 -21 -252 0 -252 0 -285 24 -58 44 -72 90
-72 234 0 69 5 138 11 154 34 90 157 144 212 92z m359 -879 c48 -14 97 -55
114 -97 10 -23 14 -83 14 -214 0 -177 -1 -184 -25 -225 -14 -24 -35 -49 -47
-55 -18 -10 -25 -7 -53 24 -17 19 -42 38 -53 41 -19 6 -22 15 -22 59 0 33 -7
62 -18 78 -28 42 -72 92 -77 87 -10 -10 -47 -124 -50 -153 -2 -16 -4 -33 -4
-36 -1 -3 -16 -14 -34 -24 -18 -10 -38 -27 -43 -39 -7 -17 -19 -21 -69 -24
-41 -2 -64 -8 -72 -19 -10 -13 -17 -14 -41 -4 -37 15 -77 57 -91 94 -6 16 -11
102 -11 200 0 146 3 178 19 213 21 45 66 83 115 94 48 12 406 11 448 0z"/>
</g>
</svg>
